<svg xmlns="http://www.w3.org/2000/svg" xmlns:svg="http://www.w3.org/2000/svg" xmlns:xlink="http://www.w3.org/1999/xlink" id="controls.fw-Page%201" width="192" height="32" x="0" y="0" version="1.1" viewBox="0 0 192 32" xml:space="preserve"><metadata id="metadata202"/><defs id="defs3"><linearGradient id="linearGradient3930"><stop id="stop3932" offset="0" stop-color="#fff" stop-opacity="1"/><stop id="stop3934" offset="1" stop-color="#969696" stop-opacity="1"/></linearGradient><linearGradient id="linearGradient3914"><stop id="stop3916" offset="0" stop-color="#000" stop-opacity="1"/><stop id="stop3918" offset="1" stop-color="#000" stop-opacity="0"/></linearGradient><linearGradient id="linearGradient4057" x1="8.5" x2="8.5" y1="3" y2="14" gradientUnits="userSpaceOnUse"><stop id="stop4059" offset="0%" stop-color="#fff" stop-opacity="1"/><stop id="stop4061" offset="100%" stop-color="#c8c8c8" stop-opacity="1"/></linearGradient><linearGradient id="linearGradient3997" x1="8.5" x2="8.5" y1="3" y2="14" gradientUnits="userSpaceOnUse"><stop id="stop3999" offset="0%" stop-color="#fff" stop-opacity="1"/><stop id="stop4001" offset="100%" stop-color="#c8c8c8" stop-opacity="1"/></linearGradient><radialGradient id="gradient1" cx="74.374" cy="9.466" r="5.916" fx="74.374" fy="9.466" gradientTransform="scale(1.183216,0.84515425)" gradientUnits="userSpaceOnUse"><stop id="stop6" offset="0%" stop-color="#fff" stop-opacity="1"/><stop id="stop8" offset="100%" stop-color="#f2f2f2" stop-opacity=".2"/></radialGradient><linearGradient id="gradient2" x1="69.325" x2="69.325" y1="2.077" y2="31.833" gradientTransform="scale(1.0385816,0.96285167)" gradientUnits="userSpaceOnUse"><stop id="stop11" offset="0%" stop-color="#fff" stop-opacity="1"/><stop id="stop13" offset="100%" stop-color="#c8c8c8" stop-opacity="1"/></linearGradient><linearGradient id="gradient3" x1="68.5" x2="68.5" y1="2" y2="13.938" gradientUnits="userSpaceOnUse"><stop id="stop16" offset="0%" stop-color="#fff" stop-opacity="1"/><stop id="stop18" offset="100%" stop-color="#c8c8c8" stop-opacity="1"/></linearGradient><linearGradient id="gradient4" x1="51.846" x2="51.846" y1="2.16" y2="15.122" gradientTransform="scale(1.0801234,0.9258201)" gradientUnits="userSpaceOnUse"><stop id="stop21" offset="0%" stop-color="#fff" stop-opacity="1"/><stop id="stop23" offset="100%" stop-color="#c8c8c8" stop-opacity="1"/></linearGradient><linearGradient id="gradient5" x1="21.361" x2="21.361" y1="2.739" y2="12.894" gradientTransform="scale(0.91287093,1.0954451)" gradientUnits="userSpaceOnUse"><stop id="stop26" offset="0%" stop-color="#fff" stop-opacity="1"/><stop id="stop28" offset="100%" stop-color="#c8c8c8" stop-opacity="1"/></linearGradient><linearGradient id="gradient6" x1="39.837" x2="39.837" y1="1.155" y2="8.083" gradientTransform="scale(0.57735027,1.7320508)" gradientUnits="userSpaceOnUse"><stop id="stop31" offset="0%" stop-color="#fff" stop-opacity="1"/><stop id="stop33" offset="100%" stop-color="#c8c8c8" stop-opacity="1"/></linearGradient><linearGradient id="gradient7" x1="21.361" x2="21.361" y1="17.345" y2="27.5" gradientTransform="scale(0.91287093,1.0954451)" gradientUnits="userSpaceOnUse"><stop id="stop36" offset="0%" stop-color="#fff" stop-opacity="1"/><stop id="stop38" offset="100%" stop-color="#c8c8c8" stop-opacity="1"/></linearGradient><linearGradient id="gradient8" x1="39.837" x2="39.837" y1="10.392" y2="17.321" gradientTransform="scale(0.57735027,1.7320508)" gradientUnits="userSpaceOnUse"><stop id="stop41" offset="0%" stop-color="#fff" stop-opacity="1"/><stop id="stop43" offset="100%" stop-color="#c8c8c8" stop-opacity="1"/></linearGradient><linearGradient id="gradient9" x1="8.5" x2="8.5" y1="3" y2="14" gradientUnits="userSpaceOnUse"><stop id="stop46" offset="0%" stop-color="#fff" stop-opacity="1"/><stop id="stop48" offset="100%" stop-color="#c8c8c8" stop-opacity="1"/></linearGradient><linearGradient id="gradient10" x1="9" x2="9" y1="9" y2="15" gradientTransform="scale(0.5,2)" gradientUnits="userSpaceOnUse"><stop id="stop51" offset="0%" stop-color="#fff" stop-opacity="1"/><stop id="stop53" offset="100%" stop-color="#c8c8c8" stop-opacity="1"/></linearGradient><linearGradient id="gradient11" x1="23" x2="23" y1="9" y2="15" gradientTransform="scale(0.5,2)" gradientUnits="userSpaceOnUse"><stop id="stop56" offset="0%" stop-color="#fff" stop-opacity="1"/><stop id="stop58" offset="100%" stop-color="#c8c8c8" stop-opacity="1"/></linearGradient><linearGradient id="gradient12" x1="36.5" x2="36.5" y1="2" y2="13.938" gradientUnits="userSpaceOnUse"><stop id="stop61" offset="0%" stop-color="#fff" stop-opacity="1"/><stop id="stop63" offset="100%" stop-color="#c8c8c8" stop-opacity="1"/></linearGradient><linearGradient id="gradient13" x1="36" x2="36" y1="2" y2="13.938" gradientUnits="userSpaceOnUse"><stop id="stop66" offset="0%" stop-color="#fff" stop-opacity="1"/><stop id="stop68" offset="100%" stop-color="#c8c8c8" stop-opacity="1"/></linearGradient><linearGradient id="gradient14" x1="43.5" x2="43.5" y1="2" y2="13.938" gradientUnits="userSpaceOnUse"><stop id="stop71" offset="0%" stop-color="#fff" stop-opacity="1"/><stop id="stop73" offset="100%" stop-color="#c8c8c8" stop-opacity="1"/></linearGradient><linearGradient id="gradient15" x1="44" x2="44" y1="2" y2="13.938" gradientUnits="userSpaceOnUse"><stop id="stop76" offset="0%" stop-color="#fff" stop-opacity="1"/><stop id="stop78" offset="100%" stop-color="#c8c8c8" stop-opacity="1"/></linearGradient><linearGradient id="gradient16" x1="44" x2="44" y1="18" y2="29.938" gradientUnits="userSpaceOnUse"><stop id="stop81" offset="0%" stop-color="#fff" stop-opacity="1"/><stop id="stop83" offset="100%" stop-color="#c8c8c8" stop-opacity="1"/></linearGradient><linearGradient id="gradient17" x1="36" x2="36" y1="18" y2="27.55" gradientUnits="userSpaceOnUse"><stop id="stop86" offset="0%" stop-color="#fff" stop-opacity="1"/><stop id="stop88" offset="100%" stop-color="#c8c8c8" stop-opacity="1"/></linearGradient><linearGradient id="gradient18" x1="36" x2="36" y1="18" y2="30" gradientUnits="userSpaceOnUse"><stop id="stop91" offset="0%" stop-color="#fff" stop-opacity="1"/><stop id="stop93" offset="100%" stop-color="#c8c8c8" stop-opacity="1"/></linearGradient><linearGradient id="gradient19" x1="44" x2="44" y1="18" y2="30.438" gradientUnits="userSpaceOnUse"><stop id="stop96" offset="0%" stop-color="#fff" stop-opacity="1"/><stop id="stop98" offset="100%" stop-color="#c8c8c8" stop-opacity="1"/></linearGradient><linearGradient id="gradient20" x1="120.5" x2="120.5" y1="3" y2="13" gradientUnits="userSpaceOnUse"><stop id="stop101" offset="0%" stop-color="#fff" stop-opacity="1"/><stop id="stop103" offset="100%" stop-color="#c8c8c8" stop-opacity="1"/></linearGradient><linearGradient id="gradient21" x1="136" x2="136" y1="1.418" y2="14.582" gradientUnits="userSpaceOnUse"><stop id="stop106" offset="0%" stop-color="#fff" stop-opacity="1"/><stop id="stop108" offset="99.444%" stop-color="#c8c8c8" stop-opacity="1"/></linearGradient><linearGradient id="linearGradient3191" x1="8.5" x2="8.5" y1="3" y2="14" gradientUnits="userSpaceOnUse" xlink:href="#gradient9"/><linearGradient id="linearGradient3193" x1="9" x2="9" y1="9" y2="15" gradientTransform="scale(0.5,2)" gradientUnits="userSpaceOnUse" xlink:href="#gradient10"/><linearGradient id="linearGradient3195" x1="23" x2="23" y1="9" y2="15" gradientTransform="scale(0.5,2)" gradientUnits="userSpaceOnUse" xlink:href="#gradient11"/><linearGradient id="linearGradient3224" x1="8.5" x2="8.5" y1="3" y2="14" gradientUnits="userSpaceOnUse" xlink:href="#gradient9"/><linearGradient id="linearGradient3227" x1="13.43" x2="-.049" y1="8.61" y2="8.594" gradientTransform="matrix(0,-0.8,0.8,0,145.71931,13.3)" gradientUnits="userSpaceOnUse" xlink:href="#linearGradient3997"/><linearGradient id="linearGradient4015" x1="152.404" x2="152.368" y1="2.442" y2="13.408" gradientUnits="userSpaceOnUse" xlink:href="#linearGradient3997"/><linearGradient id="linearGradient4017" x1="8.5" x2="8.5" y1="3" y2="14" gradientUnits="userSpaceOnUse" xlink:href="#gradient9"/><linearGradient id="linearGradient4019" x1="9" x2="9" y1="9" y2="15" gradientTransform="scale(0.5,2)" gradientUnits="userSpaceOnUse" xlink:href="#gradient10"/><linearGradient id="linearGradient4021" x1="23" x2="23" y1="9" y2="15" gradientTransform="scale(0.5,2)" gradientUnits="userSpaceOnUse" xlink:href="#gradient11"/><linearGradient id="linearGradient4015-3" x1="152.404" x2="152.368" y1="2.442" y2="13.408" gradientUnits="userSpaceOnUse" xlink:href="#linearGradient3997-4"/><linearGradient id="linearGradient3997-4" x1="8.5" x2="8.5" y1="3" y2="14" gradientUnits="userSpaceOnUse"><stop id="stop3999-6" offset="0%" stop-color="#fff" stop-opacity="1"/><stop id="stop4001-6" offset="100%" stop-color="#c8c8c8" stop-opacity="1"/></linearGradient><linearGradient id="linearGradient4038" x1="152.404" x2="152.368" y1="11.69" y2="13.408" gradientTransform="matrix(1,0,0,1.6529068,15.392238,-12.864514)" gradientUnits="userSpaceOnUse" xlink:href="#linearGradient4057"/><linearGradient id="linearGradient4038-8" x1="152.404" x2="152.368" y1="11.69" y2="13.408" gradientTransform="matrix(1,0,0,1.6529068,15.403445,-11.801024)" gradientUnits="userSpaceOnUse" xlink:href="#linearGradient4057-1"/><linearGradient id="linearGradient4057-1" x1="8.5" x2="8.5" y1="3" y2="14" gradientUnits="userSpaceOnUse"><stop id="stop4059-0" offset="0%" stop-color="#fff" stop-opacity="1"/><stop id="stop4061-0" offset="100%" stop-color="#c8c8c8" stop-opacity="1"/></linearGradient><linearGradient id="linearGradient4078" x1="152.404" x2="152.368" y1="11.69" y2="13.408" gradientTransform="matrix(1,0,0,1.6529068,15.392234,2.6890228)" gradientUnits="userSpaceOnUse" xlink:href="#linearGradient4057-1"/><linearGradient id="linearGradient4078-7" x1="152.404" x2="152.368" y1="11.69" y2="13.408" gradientTransform="matrix(1,0,0,1.6529068,15.392234,2.6890228)" gradientUnits="userSpaceOnUse" xlink:href="#linearGradient4057-1-4"/><linearGradient id="linearGradient4057-1-4" x1="8.5" x2="8.5" y1="3" y2="14" gradientUnits="userSpaceOnUse"><stop id="stop4059-0-6" offset="0%" stop-color="#fff" stop-opacity="1"/><stop id="stop4061-0-8" offset="100%" stop-color="#c8c8c8" stop-opacity="1"/></linearGradient><linearGradient id="linearGradient4114" x1="152.404" x2="152.368" y1="11.69" y2="13.408" gradientTransform="matrix(1,0,0,1.6529068,-128.73703,-188.43563)" gradientUnits="userSpaceOnUse" xlink:href="#linearGradient4057-1-4"/><linearGradient id="linearGradient4134" x1="152.537" x2="152.501" y1="9.921" y2="15.419" gradientTransform="matrix(1,0,0,1.6529068,15.392234,2.6890228)" gradientUnits="userSpaceOnUse" xlink:href="#linearGradient4057-1"/><linearGradient id="linearGradient3920" x1="182.7" x2="186.629" y1="6.589" y2="6.589" gradientUnits="userSpaceOnUse" xlink:href="#linearGradient3914"/><linearGradient id="linearGradient3928" x1="184.859" x2="184.603" y1="1.671" y2="11.375" gradientTransform="translate(0,0.93055349)" gradientUnits="userSpaceOnUse" xlink:href="#linearGradient3930"/><linearGradient id="linearGradient3928-7" x1="184.859" x2="184.603" y1="1.671" y2="11.375" gradientTransform="translate(0,0.93055349)" gradientUnits="userSpaceOnUse" xlink:href="#linearGradient3930-1"/><linearGradient id="linearGradient3930-1"><stop id="stop3932-0" offset="0" stop-color="#fff" stop-opacity="1"/><stop id="stop3934-4" offset="1" stop-color="#969696" stop-opacity="1"/></linearGradient><linearGradient id="linearGradient3166" x1="184.859" x2="184.603" y1="1.671" y2="11.375" gradientTransform="translate(0,0.93055349)" gradientUnits="userSpaceOnUse" xlink:href="#linearGradient3930-1"/><linearGradient id="linearGradient3168"><stop id="stop3170" offset="0" stop-color="#fff" stop-opacity="1"/><stop id="stop3172" offset="1" stop-color="#969696" stop-opacity="1"/></linearGradient><linearGradient id="linearGradient3176" x1="184.859" x2="184.603" y1="1.671" y2="11.375" gradientTransform="translate(-2.9648344,17.377703)" gradientUnits="userSpaceOnUse" xlink:href="#linearGradient3930-1"/></defs><g id="controls"><path id="Line" fill="none" stroke="#fff" stroke-width="1" d="m 98.5,7.5 11,0"/><path id="Line2" fill="none" stroke="#fff" stroke-width="1" d="m 98.5,3.5 11,0"/><path id="Line3" fill="none" stroke="#fff" stroke-width="1" d="m 98.5,11.5 11,0"/><path id="Ellipse" fill="#fff" d="m 108,11.5 c 0,-0.8284 0.4477,-1.5 1,-1.5 0.5523,0 1,0.6716 1,1.5 0,0.8284 -0.4477,1.5 -1,1.5 -0.5523,0 -1,-0.6716 -1,-1.5 z"/><path id="Ellipse2" fill="#fff" d="m 104,7.5 c 0,-0.8284 0.4477,-1.5 1,-1.5 0.5523,0 1,0.6716 1,1.5 0,0.8284 -0.4477,1.5 -1,1.5 -0.5523,0 -1,-0.6716 -1,-1.5 z"/><path id="Ellipse3" fill="#fff" d="m 108,3.5 c 0,-0.8284 0.4477,-1.5 1,-1.5 0.5523,0 1,0.6716 1,1.5 0,0.8284 -0.4477,1.5 -1,1.5 -0.5523,0 -1,-0.6716 -1,-1.5 z"/></g><g id="backlight"><g id="off"><rect id="rect120" width="10" height="6" x="83" y="21" fill="#333" stroke="#fff" stroke-width="1"/></g><g id="on"><path id="Ellipse4" fill="url(#gradient1)" d="m 81,8 c 0,-2.7615 3.134,-5 7,-5 3.866,0 7,2.2385 7,5 0,2.7615 -3.134,5 -7,5 -3.866,0 -7,-2.2385 -7,-5 z"/><rect id="rect124" width="10" height="6" x="83" y="5" fill="#333" stroke="#fff" stroke-width="1"/></g></g><g id="loop"><g id="on2"><path id="path128" fill="url(#gradient2)" d="M 73.795,4.205 C 75.2155,4.8785 76.2,6.3234 76.2,8 c 0,2.3196 -1.8804,4.2 -4.2,4.2 -2.3196,0 -4.2,-1.8804 -4.2,-4.2 0,-1.6766 0.9845,-3.1215 2.405,-3.795 l -1.33,-1.33 C 67.1501,3.9289 66,5.8306 66,8 c 0,3.3138 2.6862,6 6,6 3.3138,0 6,-2.6862 6,-6 0,-2.1694 -1.1501,-4.0711 -2.875,-5.125 l -1.33,1.33 z"/><path id="path130" fill="url(#gradient3)" d="m 71,2 -5,0 5,5 0,-5 z"/></g><g id="off2"><path id="path133" fill="#a8a8b7" d="m 73.795,20.205 c 1.4205,0.6735 2.405,2.1184 2.405,3.795 0,2.3196 -1.8804,4.2 -4.2,4.2 -2.3196,0 -4.2,-1.8804 -4.2,-4.2 0,-1.6766 0.9845,-3.1215 2.405,-3.795 l -1.33,-1.33 C 67.1501,19.9289 66,21.8306 66,24 c 0,3.3138 2.6862,6 6,6 3.3138,0 6,-2.6862 6,-6 0,-2.1694 -1.1501,-4.0711 -2.875,-5.125 l -1.33,1.33 z"/><path id="path135" fill="#a8a8b7" d="m 71,18 -5,0 5,5 0,-5 z"/></g></g><g id="cc"><rect id="rect138" width="14" height="12" x="49" y="2" fill="none" stroke="#b0b0b0" stroke-width="1" visibility="hidden"/><text id="text140" width="14" x="49" y="17" fill="#fff" color="#fff" font-family="Arial" font-size="10" visibility="hidden" style="text-align:center"><tspan id="tspan142">cc</tspan></text><path id="path144" fill="none" stroke="#fff" stroke-width="1" d="m 55,7 c -4.7187,-3.2187 -4.937,5.9405 0,3"/><path id="path146" fill="none" stroke="#fff" stroke-width="1" d="m 60,7 c -4.7187,-3.2187 -4.937,5.9405 0,3"/><path id="path148" fill="url(#gradient4)" d="M 50,3 62,3 62,13 50,13 50,3 z M 49,2 49,14 63,14 63,2 49,2 z"/><rect id="rect150" width="14" height="12" x="49" y="2" fill="none"/></g><g id="volume"><g id="no%20sound"><rect id="rect154" width="5" height="6" x="17" y="5" fill="url(#gradient5)"/><path id="path156" fill="url(#gradient6)" d="M 21,5 25,2 25,14 21,11.0625 21,5 z"/></g><g id="sound%20bars"><rect id="rect159" width="5" height="6" x="17" y="21" fill="url(#gradient7)"/><path id="path161" fill="url(#gradient8)" d="M 21,21 25,18 25,30 21,27.0625 21,21 z"/><path id="path163" fill="none" stroke="#fff" stroke-width="1" d="m 27,18 c 0,0 3.0625,-0.625 3,6 -0.0625,6.625 -3,6 -3,6"/><path id="path165" fill="none" stroke="#fff" stroke-width="1" d="m 26,21.0079 c 0,0 2.041,-0.3117 1.9994,2.9921 C 27.9577,27.3038 26,26.9921 26,26.9921"/></g></g><g id="play/pause"><g id="play"><path id="Polygon" fill="url(#linearGradient4017)" d="M 14,8.5 3,14 3,3 14,8.5 z"/></g><g id="pause"><rect id="rect171" width="3" height="12" x="3" y="18" fill="url(#linearGradient4019)"/><rect id="rect173" width="3" height="12" x="10" y="18" fill="url(#linearGradient4021)"/></g></g><g id="fullscreen"><g id="enter%201"><path id="path177" fill="url(#gradient12)" d="m 34,2 5,0 -5,5 0,-5 z"/><path id="path179" fill="url(#gradient13)" d="m 34,14 5,0 -5,-5 0,5 z"/><path id="path181" fill="url(#gradient14)" d="m 46,2 -5,0 5,5 0,-5 z"/><path id="path183" fill="url(#gradient15)" d="m 46,14 -5,0 5,-5 0,5 z"/></g><g id="exit"><path id="path186" fill="url(#gradient16)" d="m 42,22 4,0 -4,-4 0,4 z"/><path id="path188" fill="url(#gradient17)" d="m 38,22 0,-4 -4,4 4,0 z"/><path id="path190" fill="url(#gradient18)" d="m 38,26 -4,0 4,4 0,-4 z"/><path id="path192" fill="url(#gradient19)" d="m 42,26 0,4 4,-4 -4,0 z"/></g></g><g id="stop"><rect id="rect195" width="10" height="10" x="115" y="3" fill="url(#gradient20)"/></g><g id="chooser"><path id="path198" fill="url(#gradient21)" d="m 135.2346,6.1522 c 1.0205,-0.4227 2.1905,0.0619 2.6132,1.0824 0.4226,1.0205 -0.0619,2.1904 -1.0824,2.6132 -1.0205,0.4227 -2.1905,-0.0619 -2.6132,-1.0824 -0.4227,-1.0205 0.0619,-2.1905 1.0824,-2.6132 z M 133.2735,1.4176 136,4.0054 l 2.7265,-2.5878 0.0981,3.7578 3.7578,0.0981 -2.5878,2.7265 2.5878,2.7265 -3.7578,0.0981 -0.0981,3.7578 -2.7265,-2.5878 -2.7265,2.5878 -0.0981,-3.7578 -3.7578,-0.0981 2.5878,-2.7265 -2.5878,-2.7265 3.7578,-0.0981 0.0981,-3.7578 z"/></g><path id="path3183" fill="url(#linearGradient3227)" fill-opacity="1" fill-rule="nonzero" d="m 152.51931,2.1 4.4,8.8 -8.8,0 4.4,-8.8 z"/><rect id="rect4003" width="8.751" height="1.629" x="148.119" y="11.771" fill="url(#linearGradient4015)" fill-opacity="1" fill-rule="nonzero"/><rect id="rect4003-9" width="8.751" height="2.692" x="163.512" y="6.592" fill="url(#linearGradient4038)" fill-opacity="1" fill-rule="nonzero"/><path id="rect4003-9-9" fill="url(#linearGradient4134)" fill-opacity="1" fill-rule="nonzero" d="m 166.28125,19.375 0,2.78125 -2.78125,0 0,2.6875 2.78125,0 0,3.28125 2.6875,0 0,-3.28125 3.28125,0 0,-2.6875 -3.28125,0 0,-2.78125 -2.6875,0 z"/><text id="text3142" x="182.256" y="12.458" fill="url(#linearGradient3928)" fill-opacity="1" stroke="none" font-family="Serif" font-size="16" font-stretch="normal" font-style="italic" font-variant="normal" font-weight="bold" letter-spacing="0" word-spacing="0" xml:space="preserve" style="line-height:125%;-inkscape-font-specification:Serif Bold Italic"><tspan font-family="Serif" style="-inkscape-font-specification:Serif Bold Italic" id="tspan3144" x="182.256" y="12.458" fill="url(#linearGradient3928)" fill-opacity="1" stroke="none" font-size="16" font-stretch="normal" font-style="italic" font-variant="normal" font-weight="bold">i</tspan></text><text id="text3142-8" x="179.291" y="28.906" fill="url(#linearGradient3176)" fill-opacity="1" stroke="none" font-family="Serif" font-size="16" font-stretch="normal" font-style="italic" font-variant="normal" font-weight="bold" letter-spacing="0" word-spacing="0" xml:space="preserve" style="line-height:125%;-inkscape-font-specification:Serif Bold Italic"><tspan font-family="Serif" style="-inkscape-font-specification:Serif Bold Italic" id="tspan3144-2" x="179.291" y="28.906" fill="url(#linearGradient3176)" fill-opacity="1" stroke="none" font-size="16" font-stretch="normal" font-style="italic" font-variant="normal" font-weight="bold">?</tspan></text></svg>